<svg width="200" height="181" viewBox="0 0 200 181" fill="none" xmlns="http://www.w3.org/2000/svg">
<path d="M112.774 1.12146C118.132 -0.201844 123.743 -0.55849 128.838 1.18103C134.836 3.22899 142.35 6.05836 147.716 9.97107C150.409 11.935 152.769 14.3198 154.037 17.2191C155.353 20.2283 155.387 23.5633 153.81 27.0726C152.818 29.2776 150.915 31.4203 149.456 32.8861C148.957 33.3877 148.48 33.8369 148.066 34.2152C148.308 34.8147 148.574 35.5355 148.811 36.3226C149.137 37.41 149.43 38.696 149.507 40.0043C149.582 41.2921 149.458 42.7982 148.76 44.1771C148.128 45.4236 147.128 46.3658 146.179 47.057C145.212 47.7607 144.151 48.3104 143.212 48.7259C142.265 49.145 141.381 49.4534 140.737 49.6566C140.413 49.7588 140.144 49.8362 139.952 49.889C139.856 49.9154 139.779 49.9361 139.724 49.9506C139.696 49.9577 139.673 49.9639 139.656 49.9681C139.648 49.9702 139.64 49.9716 139.635 49.973C139.632 49.9737 139.629 49.9745 139.627 49.975L139.624 49.9759H139.623C139.621 49.9693 139.589 49.8438 139.029 47.5472L139.622 49.9759L138.873 50.1586L138.152 49.8881L130.465 47.0052L100.436 44.1449L88.3222 55.8099L82.5009 84.139C83.2437 83.5446 84.0407 82.931 84.8818 82.3197C87.2512 80.5977 90.0183 78.85 92.9267 77.5619C95.8157 76.2824 99.0029 75.3865 102.16 75.5511C105.695 75.7356 109.69 77.2932 112.602 78.6488C114.102 79.3468 115.401 80.0335 116.325 80.5453C116.411 80.5928 116.494 80.6395 116.573 80.684C117.16 80.3743 117.937 79.9725 118.87 79.5072C121.075 78.4083 124.168 76.9483 127.722 75.5062C134.728 72.6628 143.904 69.7264 151.634 70.0492C160.125 70.4038 167.727 71.628 174.484 74.6302C181.287 77.6529 187.095 82.4166 192.085 89.6244C200.878 102.326 199.853 113.434 198.519 127.779C197.813 135.359 196.715 141.63 194.563 147.56C192.406 153.507 189.232 158.997 184.504 165.081C179.818 171.112 176.733 176.726 168.417 179.884C163.204 181.864 157.986 180.536 153.404 177.912C148.835 175.296 144.589 171.233 141.01 167.111C137.41 162.965 134.373 158.632 132.242 155.349C131.389 154.035 130.679 152.883 130.131 151.972C129.706 152.216 129.226 152.489 128.695 152.786C126.435 154.05 123.26 155.757 119.598 157.531C112.344 161.044 102.917 164.946 94.8613 166.025C77.005 168.415 66.0304 165.168 49.6347 158.881C44.9312 157.078 41.4775 155.195 38.1435 153.255C34.8046 151.313 31.6796 149.372 27.4306 147.292C23.3134 145.277 19.373 144.95 14.8886 143.84C10.5492 142.767 6.20843 140.966 3.3398 135.752C0.892427 131.304 -1.04573 127.164 0.62691 121.356C1.41014 118.637 3.56705 116.128 5.20406 114.484C6.06891 113.615 6.88926 112.889 7.49312 112.381C7.57019 112.316 7.64574 112.257 7.71578 112.199C7.77823 111.821 7.85784 111.343 7.95601 110.783C8.2139 109.309 8.59282 107.257 9.07808 104.937C10.0403 100.337 11.4509 94.5363 13.207 90.1234C18.8395 75.9701 25.1465 69.1599 35.1982 58.3451C40.3167 52.838 47.7138 46.8542 53.7441 42.2982C56.7756 40.0079 59.4936 38.0552 61.4541 36.6742C62.4346 35.9835 63.227 35.4345 63.7753 35.058C64.0494 34.8698 64.2627 34.7242 64.4082 34.6254C64.4162 34.6199 64.424 34.6139 64.4316 34.6088L80.7617 18.2797L80.8496 18.1918L80.9462 18.1127L82.5293 20.0472C80.9459 18.1134 80.9466 18.1122 80.9472 18.1117L80.9492 18.1107C80.9505 18.1096 80.952 18.1075 80.9541 18.1058C80.9585 18.1022 80.965 18.0973 80.9726 18.0912C80.9883 18.0784 81.0113 18.0596 81.04 18.0365C81.0975 17.9901 81.1811 17.923 81.289 17.8373C81.5058 17.6651 81.823 17.4168 82.2294 17.1049C83.0424 16.481 84.2181 15.6012 85.6826 14.5677C88.6074 12.5037 92.7072 9.80827 97.3925 7.30212C102.067 4.80194 107.398 2.44944 112.774 1.12146ZM190.775 143.084C168.54 152.184 152.954 155.32 140.953 151.375C138.246 150.486 135.738 149.243 133.389 147.643C133.4 147.664 133.413 147.686 133.426 147.708C133.566 147.955 133.777 148.321 134.052 148.786C134.603 149.718 135.412 151.048 136.436 152.626C138.49 155.791 141.388 159.92 144.785 163.832C148.203 167.768 152.019 171.358 155.889 173.574C159.746 175.782 163.346 176.462 166.643 175.21C173.308 172.679 175.409 168.637 180.556 162.013C185.04 156.242 187.922 151.206 189.863 145.855C190.193 144.946 190.495 144.024 190.775 143.084ZM127.222 5.91345C123.373 4.59935 118.823 4.77816 113.974 5.97595C109.142 7.16911 104.216 9.32316 99.7509 11.7113C95.2977 14.0933 91.3768 16.6688 88.5654 18.6527C87.1622 19.6429 86.0403 20.4821 85.2734 21.0707C84.8904 21.3646 84.5958 21.5963 84.3994 21.7523C84.3169 21.8178 84.2512 21.8706 84.2041 21.9086L67.6259 38.4867L67.4248 38.6224H67.4238L67.4218 38.6234C67.4199 38.6247 67.4171 38.6275 67.413 38.6302C67.4047 38.6359 67.3912 38.644 67.374 38.6556C67.3393 38.6791 67.2869 38.7151 67.2177 38.7621C67.079 38.8563 66.8721 38.9969 66.6054 39.1801C66.0719 39.5464 65.2963 40.0832 64.3339 40.7611C62.4077 42.118 59.7354 44.0388 56.7578 46.2884C50.7693 50.8129 43.6664 56.5796 38.8613 61.7494C28.8531 72.5174 23.1151 78.7483 17.8525 91.972C16.2642 95.9632 14.9242 101.412 13.9726 105.961C13.5598 107.935 13.2256 109.711 12.9804 111.084L21.207 100.391L22.7929 101.61L12.7929 114.61L12.4375 114.336L12.3466 114.933L11.5322 115.545C11.531 115.546 11.5288 115.547 11.5263 115.549C11.5192 115.555 11.5065 115.564 11.4892 115.578C11.4545 115.604 11.4005 115.647 11.3291 115.703C11.1855 115.817 10.973 115.988 10.7128 116.207C10.1904 116.647 9.48396 117.272 8.748 118.011C7.18277 119.583 5.83877 121.326 5.4316 122.74C4.34909 126.498 5.36764 129.068 7.71968 133.342C9.61097 136.779 12.3364 138.058 16.0898 138.987C19.6982 139.879 24.878 140.477 29.6289 142.802C34.087 144.984 37.437 147.059 40.6582 148.933C43.8841 150.81 47.0768 152.546 51.4248 154.213C67.5207 160.385 77.564 163.297 94.1982 161.07C101.417 160.103 110.241 156.506 117.418 153.031C120.971 151.31 124.057 149.65 126.254 148.421C127.351 147.807 128.225 147.303 128.822 146.953C129.12 146.777 129.35 146.641 129.503 146.549C129.579 146.503 129.637 146.468 129.675 146.446C129.693 146.434 129.707 146.426 129.716 146.42C129.72 146.418 129.724 146.416 129.726 146.414L129.727 146.413L130.852 145.726C123.704 139.773 118.035 130.178 112.575 116.88L113.5 116.5L113.515 116.494C110.555 115.206 108.272 113.712 106.706 111.93C105.965 111.087 105.395 110.191 104.988 109.244L104.933 109.325C99.0462 105.274 94.2705 103.3 89.2011 102.758C84.1018 102.213 78.6087 103.105 71.2461 104.97L71.1953 104.772L71.1855 104.789L70.9062 104.914L57.4062 110.914L56.5937 109.086L69.8144 103.21L74.6523 95.4701L75.0214 95.7006L76.081 90.5443L83.581 54.0443L83.7373 53.2845L84.2959 52.7465L97.4755 40.0541C96.6888 37.3666 96.3024 35.1821 96.4531 33.0121C96.6086 30.7739 97.3264 28.6394 98.6035 26.057L100.396 26.9437C99.1799 29.4036 98.5787 31.2731 98.4482 33.1508C98.329 34.8669 98.6001 36.6636 99.2568 39.0101L99.7666 39.059L131.267 42.059L131.597 42.0902L131.907 42.2064L139.136 44.9174C139.167 44.9077 139.2 44.8994 139.232 44.889C139.753 44.7246 140.455 44.4785 141.189 44.1537C141.932 43.8251 142.651 43.4407 143.235 43.015C143.837 42.5769 144.16 42.1942 144.3 41.9174C144.45 41.6211 144.563 41.1019 144.516 40.2953C144.47 39.5086 144.282 38.6276 144.021 37.7592C143.764 36.9016 143.456 36.1237 143.21 35.557C143.088 35.276 142.983 35.0519 142.911 34.9027C142.875 34.8284 142.848 34.7721 142.831 34.7377C142.823 34.7207 142.816 34.7088 142.812 34.7025L142.81 34.6976L142.138 33.4056L142.129 33.4291L127.129 27.4291L126.5 27.1771V20.0004H128.5V25.8226L142.871 31.5717L142.572 32.3168L143.459 31.6019C143.46 31.6011 143.462 31.6 143.465 31.598C143.471 31.5928 143.482 31.5838 143.497 31.5717C143.527 31.5468 143.575 31.5074 143.637 31.4554C143.761 31.3513 143.944 31.1946 144.17 30.9955C144.624 30.5955 145.247 30.0281 145.912 29.3597C147.306 27.9594 148.652 26.3515 149.25 25.0218C150.277 22.7377 150.179 20.8761 149.456 19.222C148.685 17.458 147.099 15.7102 144.769 14.0111C140.088 10.5974 133.248 7.97099 127.222 5.91345ZM151.426 75.0453C144.84 74.7702 136.516 77.334 129.602 80.14C126.195 81.5225 123.221 82.9248 121.101 83.9818C120.041 84.5097 119.197 84.9506 118.621 85.2572C118.333 85.4103 118.113 85.5303 117.966 85.6107C117.892 85.6509 117.837 85.6807 117.801 85.7006C117.783 85.7104 117.77 85.7185 117.762 85.723L117.752 85.7279L116.473 86.4457L115.223 85.6781H115.222C115.219 85.6766 115.214 85.6731 115.208 85.6693C115.195 85.6615 115.174 85.6489 115.146 85.6322C115.09 85.5984 115.004 85.5472 114.891 85.4808C114.87 85.4687 114.848 85.4569 114.825 85.4437L116.271 86.6371C111.32 92.633 108.222 97.4816 106.921 101.435C105.642 105.322 106.124 108.236 108.209 110.61C110.381 113.082 114.412 115.116 120.605 116.819C126.766 118.512 134.904 119.837 145.114 121.007L144.886 122.994C134.647 121.82 126.388 120.481 120.076 118.746C118.15 118.217 116.391 117.646 114.802 117.025C122.451 135.381 130.308 145.772 141.578 149.476C153.072 153.254 168.443 150.202 191.444 140.648C192.43 136.699 193.069 132.377 193.54 127.316C194.882 112.894 195.626 103.522 187.975 92.4701C183.47 85.9631 178.361 81.824 172.454 79.1996C166.502 76.5548 159.601 75.3868 151.426 75.0453ZM101.899 80.5443C99.8198 80.4358 97.4501 81.0274 94.9511 82.1342C92.4718 83.2322 90.0183 84.7686 87.8222 86.3646C85.6333 87.9554 83.7495 89.5693 82.4121 90.7875C81.7451 91.395 81.2177 91.9009 80.8603 92.2513C80.6818 92.4264 80.5454 92.5623 80.456 92.6527C80.4115 92.6978 80.3783 92.7318 80.3574 92.7533C80.3471 92.7638 80.3393 92.7722 80.3349 92.7767C80.3335 92.7782 80.3318 92.779 80.331 92.7797L75.6455 97.6527L72.5634 102.584C79.1172 101.005 84.3967 100.233 89.414 100.769C94.3652 101.298 98.9811 103.094 104.275 106.49C104.091 104.744 104.349 102.851 105.02 100.81C106.441 96.4932 109.733 91.4135 114.714 85.3802C114.501 85.2572 114.228 85.0993 113.903 84.9193C113.054 84.4492 111.862 83.8193 110.493 83.182C107.667 81.8666 104.412 80.6754 101.899 80.5443Z" fill="white"/>
</svg>
