<svg width="40" height="40" viewBox="0 0 40 40" fill="none" xmlns="http://www.w3.org/2000/svg">
<g clip-path="url(#clip0_8_18)">
<rect width="40" height="40" rx="20" fill="#61C8EC"/>
<circle cx="18.5" cy="19.5" r="27.5" fill="#61C8EC"/>
<path d="M18.7684 28.7872C16.0756 28.7872 13.7743 27.8554 11.8646 25.992C9.95486 24.1286 9 21.8581 9 19.1806V10.3149C9 9.67442 9.22569 9.12847 9.67708 8.67708C10.1285 8.22569 10.6744 8 11.3149 8H29.3472C30.628 8 31.7237 8.44363 32.6344 9.3309C33.5448 10.2184 34 11.3025 34 12.5833C34 13.9567 33.5564 15.1566 32.6691 16.183C31.7816 17.2091 30.6743 17.7222 29.3472 17.7222H28.5372V19.1806C28.5372 21.8581 27.5823 24.1286 25.6726 25.992C23.7628 27.8554 21.4615 28.7872 18.7684 28.7872ZM11.3149 15.4073H26.2222V10.3149H11.3149V15.4073ZM18.7684 26.4722C20.8133 26.4722 22.5668 25.7682 24.0288 24.3601C25.4911 22.9517 26.2222 21.2252 26.2222 19.1806V17.7222H11.3149V19.1806C11.3149 21.2252 12.0459 22.9517 13.508 24.3601C14.9703 25.7682 16.7237 26.4722 18.7684 26.4722ZM28.5372 15.4073H29.3472C30.0493 15.4073 30.6145 15.1199 31.0427 14.5451C31.471 13.9704 31.6851 13.3164 31.6851 12.5833C31.6851 11.9428 31.4556 11.4046 30.9965 10.9688C30.5375 10.5329 29.9877 10.3149 29.3472 10.3149H28.5372V15.4073ZM9 33V30.6851H31.2222V33H9Z" fill="white"/>
</g>
<defs>
<clipPath id="clip0_8_18">
<rect width="40" height="40" rx="20" fill="white"/>
</clipPath>
</defs>
</svg>
